<?xml version="1.0" encoding="utf-8"?>
<!-- Generator: Adobe Illustrator 26.0.2, SVG Export Plug-In . SVG Version: 6.00 Build 0)  -->
<svg version="1.1" id="Layer_1" xmlns="http://www.w3.org/2000/svg" xmlns:xlink="http://www.w3.org/1999/xlink" x="0px" y="0px"
	 viewBox="0 0 40 40" style="enable-background:new 0 0 40 40;" xml:space="preserve">
<style type="text/css">
	.st0{fill:#F7DF1E;}
</style>
<rect x="4" y="4" class="st0" width="32" height="32"/>
<path d="M25.5,29c0.6,1.1,1.5,1.8,3,1.8c1.2,0,2-0.6,2-1.5c0-1-0.8-1.4-2.2-2L27.6,27c-2.2-0.9-3.6-2.1-3.6-4.5c0-2.3,1.7-4,4.4-4
	c1.9,0,3.3,0.7,4.3,2.4l-2.3,1.5c-0.5-0.9-1.1-1.3-1.9-1.3c-0.9,0-1.4,0.6-1.4,1.3c0,0.9,0.6,1.3,1.8,1.8l0.8,0.3
	c2.6,1.1,4,2.2,4,4.7c0,2.7-2.1,4.2-5,4.2c-2.8,0-4.6-1.3-5.5-3.1L25.5,29z M14.9,29.3c0.5,0.8,0.9,1.5,1.9,1.5c1,0,1.6-0.4,1.6-1.9
	V18.7h3V29c0,3.1-1.8,4.5-4.5,4.5c-2.4,0-3.8-1.2-4.5-2.7L14.9,29.3z"/>
</svg>
